<svg width="65" height="20" viewBox="0 0 65 20" fill="none" xmlns="http://www.w3.org/2000/svg">
<path d="M10.2335 0.536972C10.2335 0.24041 9.99954 0 9.71094 0C9.42235 0 9.18839 0.24041 9.18839 0.536972V3.62899C9.18839 3.78584 9.00385 3.86439 8.89592 3.75348L7.35801 2.17312C7.15394 1.96342 6.82308 1.96342 6.61901 2.17312C6.41495 2.38282 6.41495 2.72281 6.61901 2.93251L8.88731 5.26342C9.08009 5.46152 9.18839 5.73021 9.18839 6.01036V8.76202C9.18839 8.89755 9.04562 8.98226 8.9314 8.91449L6.60499 7.53427C6.36888 7.39419 6.1966 7.16346 6.12604 6.89285L5.29578 3.70877C5.22109 3.42231 4.93456 3.25231 4.65579 3.32907C4.37703 3.40583 4.2116 3.70027 4.2863 3.98672L4.84921 6.14554C4.88872 6.29705 4.73025 6.422 4.59806 6.34358L1.99963 4.80197C1.7497 4.65369 1.43012 4.74168 1.28582 4.99851C1.14152 5.25534 1.22715 5.58375 1.47709 5.73203L4.0784 7.27536C4.21059 7.35378 4.18452 7.55729 4.03708 7.59788L1.93169 8.17759C1.65293 8.25435 1.4875 8.54879 1.56219 8.83525C1.63689 9.1217 1.92342 9.2917 2.20218 9.21494L5.3053 8.36051C5.56864 8.288 5.84923 8.32596 6.08534 8.46604L8.41053 9.84555C8.52474 9.91331 8.52474 10.0827 8.41053 10.1505L6.08077 11.5327C5.84466 11.6728 5.56407 11.7107 5.30073 11.6382L2.20218 10.7851C1.92342 10.7083 1.63689 10.8783 1.56219 11.1648C1.4875 11.4512 1.65293 11.7457 1.93169 11.8224L4.03251 12.4009C4.17995 12.4415 4.20602 12.645 4.07383 12.7234L1.47541 14.265C1.22548 14.4133 1.13985 14.7417 1.28415 14.9985C1.42844 15.2553 1.74803 15.3433 1.99796 15.1951L4.59928 13.6517C4.73147 13.5733 4.88994 13.6983 4.85044 13.8498L4.2863 16.0133C4.2116 16.2997 4.37703 16.5942 4.65579 16.6709C4.93455 16.7477 5.22109 16.5777 5.29578 16.2912L6.12726 13.1025C6.19782 12.8318 6.37011 12.6011 6.60622 12.461L8.9314 11.0815C9.04562 11.0138 9.18839 11.0985 9.18839 11.234V13.9984C9.18839 14.2786 9.08009 14.5473 8.88731 14.7454L6.61901 17.0763C6.41495 17.286 6.41495 17.626 6.61901 17.8357C6.82308 18.0454 7.15394 18.0454 7.35801 17.8357L8.89592 16.2553C9.00385 16.1444 9.18839 16.223 9.18839 16.3798V19.463C9.18839 19.7596 9.42235 20 9.71094 20C9.99954 20 10.2335 19.7596 10.2335 19.463V16.3764C10.2335 16.2195 10.418 16.141 10.526 16.2519L12.0672 17.8357C12.2713 18.0454 12.6021 18.0454 12.8062 17.8357C13.0103 17.626 13.0103 17.286 12.8062 17.0763L10.5346 14.7419C10.3418 14.5438 10.2335 14.2752 10.2335 13.995V11.232C10.2335 11.0965 10.3763 11.0118 10.4905 11.0796L12.8116 12.4566C13.0477 12.5967 13.22 12.8275 13.2906 13.0981L14.122 16.2868C14.1967 16.5733 14.4833 16.7433 14.762 16.6665C15.0408 16.5898 15.2062 16.2953 15.1315 16.0089L14.5674 13.8454C14.5279 13.6939 14.6864 13.5689 14.8185 13.6473L17.4273 15.1951C17.6772 15.3433 17.9968 15.2553 18.1411 14.9985C18.2854 14.7417 18.1997 14.4133 17.9498 14.265L15.344 12.719C15.2118 12.6406 15.2379 12.4371 15.3853 12.3965L17.4861 11.818C17.7649 11.7413 17.9303 11.4468 17.8556 11.1604C17.7809 10.8739 17.4944 10.7039 17.2156 10.7807L14.1171 11.6338C13.8537 11.7063 13.5731 11.6684 13.337 11.5283L11.0147 10.1505C10.9005 10.0827 10.9005 9.91331 11.0147 9.84555L13.3325 8.47044C13.5686 8.33036 13.8492 8.2924 14.1125 8.36491L17.2156 9.21935C17.4944 9.2961 17.7809 9.12611 17.8556 8.83965C17.9303 8.55319 17.7649 8.25875 17.4861 8.182L15.3807 7.60228C15.2333 7.56169 15.2072 7.35818 15.3394 7.27976L17.9481 5.73203C18.1981 5.58375 18.2837 5.25534 18.1394 4.99851C17.9951 4.74168 17.6755 4.65369 17.4256 4.80197L14.8198 6.34797C14.6876 6.4264 14.5291 6.30144 14.5686 6.14994L15.1315 3.99113C15.2062 3.70467 15.0408 3.41023 14.762 3.33347C14.4833 3.25672 14.1967 3.42671 14.122 3.71317L13.2918 6.89724C13.2212 7.16786 13.0489 7.39858 12.8128 7.53866L10.4905 8.91648C10.3763 8.98424 10.2335 8.89954 10.2335 8.76401V6.0138C10.2335 5.73364 10.3418 5.46496 10.5346 5.26686L12.8062 2.93251C13.0103 2.72281 13.0103 2.38282 12.8062 2.17312C12.6021 1.96342 12.2713 1.96342 12.0672 2.17312L10.526 3.75692C10.418 3.86783 10.2335 3.78928 10.2335 3.63243V0.536972Z" fill="#95A4FC"/>
<path d="M40.3448 14.6154V9.23077C40.3448 7.95626 39.3413 6.92307 38.1034 6.92307C36.8656 6.92307 35.8621 7.95626 35.8621 9.23077V14.6154H34.3678V9.23077C34.3678 7.1066 36.0403 5.38461 38.1034 5.38461C40.1666 5.38461 41.8391 7.1066 41.8391 9.23077V14.6154H40.3448Z" fill="#1C1C1C"/>
<path fill-rule="evenodd" clip-rule="evenodd" d="M48.5632 13.0769C50.2137 13.0769 51.5517 11.6993 51.5517 10C51.5517 8.30066 50.2137 6.92307 48.5632 6.92307C46.9127 6.92307 45.5747 8.30066 45.5747 10C45.5747 11.6993 46.9127 13.0769 48.5632 13.0769ZM48.5632 14.6154C51.039 14.6154 53.046 12.549 53.046 10C53.046 7.45099 51.039 5.38461 48.5632 5.38461C46.0874 5.38461 44.0804 7.45099 44.0804 10C44.0804 12.549 46.0874 14.6154 48.5632 14.6154Z" fill="#95A4FC"/>
<path d="M54.5402 5.38461L55.9485 13.3473C56.2406 14.9991 58.3827 15.0526 58.7434 13.4172L59.5782 8.87832C59.6089 8.71158 59.8259 8.71498 59.8523 8.88262L60.5547 13.3498C60.8665 14.9989 63.0119 15.0201 63.3508 13.3774L65 5.38461H63.5497L62.0986 13.0465C62.0674 13.2112 61.8535 13.209 61.825 13.0437L60.507 5.38461H59.0471L57.5035 13.069C57.4706 13.2331 57.257 13.2283 57.2301 13.0628L55.9837 5.38461H54.5402Z" fill="#1C1C1C"/>
<path d="M28.6866 14.6154C29.736 14.6154 30.5717 14.3902 31.1936 13.9212C31.8155 13.4522 32.1264 12.8143 32.1264 11.97C32.1264 11.2383 31.8738 10.6942 31.3879 10.3002C30.8826 9.90619 30.2219 9.56848 29.3862 9.26829C28.8227 9.04315 28.3368 8.83677 27.9676 8.64915C27.5983 8.46154 27.404 8.18011 27.404 7.80488C27.404 7.46716 27.54 7.2045 27.8315 7.03565C28.123 6.86679 28.5117 6.79174 28.9976 6.79174C29.3668 6.79174 29.736 6.84803 30.0859 6.9606C30.4162 7.07317 30.766 7.22326 31.1353 7.42964L31.7377 6.15384C31.3296 5.89118 30.8826 5.70356 30.4162 5.57223C29.9498 5.4409 29.4834 5.38461 28.9976 5.38461C28.0259 5.38461 27.2485 5.59099 26.6461 6.02251C26.0436 6.45403 25.7521 7.05441 25.7715 7.82364C25.791 8.53658 26.0436 9.08067 26.5489 9.45591C27.0347 9.83114 27.6955 10.1689 28.5311 10.469C29.0947 10.6754 29.5611 10.8818 29.9304 11.0882C30.2996 11.2946 30.4745 11.6135 30.4745 12.0263C30.4745 12.4015 30.3191 12.6829 30.0081 12.8893C29.6777 13.0957 29.2308 13.1895 28.6283 13.1895C28.2202 13.1895 27.7927 13.1144 27.3651 12.9831C26.9376 12.8518 26.4906 12.6454 26.0047 12.3265L25.4023 13.6585C25.8881 13.9587 26.4128 14.1839 26.9376 14.3527C27.4623 14.5216 28.0453 14.6154 28.6866 14.6154Z" fill="#1C1C1C"/>
</svg>
