<svg width="163" height="28" viewBox="0 0 163 28" fill="none" xmlns="http://www.w3.org/2000/svg">
<rect width="163" height="28" rx="8" fill="black" fill-opacity="0.05"/>
<path d="M0 8C0 3.58172 3.58172 0 8 0H85V28H8C3.58172 28 0 24.4183 0 20V8Z" fill="#C6C7F8"/>
<path d="M10.149 7.90909V21H7.77752V7.90909H10.149ZM14.9286 15.2472V21H12.6147V11.1818H14.8263V12.8501H14.9414C15.1673 12.3004 15.5273 11.8636 16.0217 11.5398C16.5202 11.2159 17.136 11.054 17.869 11.054C18.5465 11.054 19.1367 11.1989 19.6396 11.4886C20.1467 11.7784 20.5387 12.1982 20.8157 12.7479C21.0969 13.2976 21.2354 13.9645 21.2312 14.7486V21H18.9173V15.1065C18.9173 14.4503 18.7468 13.9368 18.4059 13.5661C18.0692 13.1953 17.6026 13.0099 17.006 13.0099C16.6012 13.0099 16.2411 13.0994 15.9258 13.2784C15.6147 13.4531 15.3697 13.7067 15.1907 14.0391C15.016 14.3714 14.9286 14.7741 14.9286 15.2472ZM28.1506 21V7.90909H33.0597C34.0653 7.90909 34.9091 8.09659 35.5909 8.47159C36.277 8.84659 36.7947 9.36222 37.1442 10.0185C37.4979 10.6705 37.6747 11.4119 37.6747 12.2429C37.6747 13.0824 37.4979 13.8281 37.1442 14.4801C36.7905 15.1321 36.2685 15.6456 35.5781 16.0206C34.8878 16.3913 34.0376 16.5767 33.0277 16.5767H29.7741V14.6271H32.7081C33.2962 14.6271 33.7777 14.5249 34.1527 14.3203C34.5277 14.1158 34.8047 13.8345 34.9837 13.4766C35.1669 13.1186 35.2585 12.7074 35.2585 12.2429C35.2585 11.7784 35.1669 11.3693 34.9837 11.0156C34.8047 10.6619 34.5256 10.3871 34.1463 10.1911C33.7713 9.99077 33.2876 9.89062 32.6953 9.89062H30.522V21H28.1506ZM39.6323 21V11.1818H41.8759V12.8182H41.9782C42.1571 12.2514 42.464 11.8146 42.8986 11.5078C43.3375 11.1967 43.8382 11.0412 44.4007 11.0412C44.5286 11.0412 44.6713 11.0476 44.829 11.0604C44.9909 11.0689 45.1252 11.0838 45.2317 11.1051V13.2337C45.1337 13.1996 44.9782 13.1697 44.7651 13.1442C44.5563 13.1143 44.3539 13.0994 44.1578 13.0994C43.736 13.0994 43.3567 13.1911 43.0201 13.3743C42.6877 13.5533 42.4256 13.8026 42.2338 14.1222C42.0421 14.4418 41.9462 14.8104 41.9462 15.228V21H39.6323ZM50.6474 21.1918C49.6886 21.1918 48.8576 20.9808 48.1545 20.5589C47.4513 20.1371 46.9059 19.5469 46.5181 18.7884C46.1346 18.0298 45.9428 17.1435 45.9428 16.1293C45.9428 15.1151 46.1346 14.2266 46.5181 13.4638C46.9059 12.701 47.4513 12.1087 48.1545 11.6868C48.8576 11.2649 49.6886 11.054 50.6474 11.054C51.6062 11.054 52.4371 11.2649 53.1403 11.6868C53.8434 12.1087 54.3867 12.701 54.7702 13.4638C55.158 14.2266 55.3519 15.1151 55.3519 16.1293C55.3519 17.1435 55.158 18.0298 54.7702 18.7884C54.3867 19.5469 53.8434 20.1371 53.1403 20.5589C52.4371 20.9808 51.6062 21.1918 50.6474 21.1918ZM50.6602 19.3381C51.18 19.3381 51.6147 19.1953 51.9641 18.9098C52.3136 18.62 52.5735 18.2322 52.744 17.7464C52.9187 17.2607 53.006 16.7195 53.006 16.1229C53.006 15.522 52.9187 14.9787 52.744 14.4929C52.5735 14.0028 52.3136 13.6129 51.9641 13.3232C51.6147 13.0334 51.18 12.8885 50.6602 12.8885C50.1275 12.8885 49.6843 13.0334 49.3306 13.3232C48.9812 13.6129 48.7191 14.0028 48.5444 14.4929C48.3739 14.9787 48.2887 15.522 48.2887 16.1229C48.2887 16.7195 48.3739 17.2607 48.5444 17.7464C48.7191 18.2322 48.9812 18.62 49.3306 18.9098C49.6843 19.1953 50.1275 19.3381 50.6602 19.3381ZM61.5858 24.8864C60.7548 24.8864 60.041 24.7734 59.4444 24.5476C58.8478 24.326 58.3684 24.0277 58.0062 23.6527C57.644 23.2777 57.3926 22.8622 57.252 22.4062L59.3358 21.9013C59.4295 22.093 59.5659 22.2827 59.7449 22.4702C59.9238 22.6619 60.1646 22.8196 60.4672 22.9432C60.774 23.071 61.1596 23.1349 61.6241 23.1349C62.2804 23.1349 62.8237 22.9751 63.2541 22.6555C63.6845 22.3402 63.8997 21.8203 63.8997 21.0959V19.2358H63.7846C63.6653 19.4744 63.4906 19.7195 63.2605 19.9709C63.0346 20.2223 62.7342 20.4332 62.3592 20.6037C61.9885 20.7741 61.5218 20.8594 60.9593 20.8594C60.2051 20.8594 59.5211 20.6825 58.9075 20.3288C58.2981 19.9709 57.8123 19.4382 57.4501 18.7308C57.0922 18.0192 56.9132 17.1286 56.9132 16.0589C56.9132 14.9808 57.0922 14.071 57.4501 13.3295C57.8123 12.5838 58.3002 12.0192 58.9139 11.6357C59.5275 11.2479 60.2115 11.054 60.9657 11.054C61.541 11.054 62.014 11.152 62.3848 11.348C62.7598 11.5398 63.0581 11.772 63.2797 12.0447C63.5012 12.3132 63.6696 12.5668 63.7846 12.8054H63.9125V11.1818H66.1944V21.1598C66.1944 21.9993 65.9941 22.6939 65.5936 23.2436C65.193 23.7933 64.6454 24.2045 63.9508 24.4773C63.2562 24.75 62.4679 24.8864 61.5858 24.8864ZM61.6049 19.044C62.095 19.044 62.5126 18.9247 62.8578 18.6861C63.2029 18.4474 63.465 18.1044 63.644 17.657C63.823 17.2095 63.9125 16.6726 63.9125 16.0462C63.9125 15.4283 63.823 14.8871 63.644 14.4226C63.4693 13.9581 63.2093 13.598 62.8642 13.3423C62.5233 13.0824 62.1035 12.9524 61.6049 12.9524C61.0893 12.9524 60.6589 13.0866 60.3137 13.3551C59.9686 13.6236 59.7086 13.9922 59.5339 14.4609C59.3592 14.9254 59.2718 15.4538 59.2718 16.0462C59.2718 16.647 59.3592 17.1733 59.5339 17.625C59.7129 18.0724 59.975 18.4219 60.3201 18.6733C60.6696 18.9205 61.0978 19.044 61.6049 19.044ZM68.5659 21V11.1818H70.8095V12.8182H70.9118C71.0907 12.2514 71.3975 11.8146 71.8322 11.5078C72.2711 11.1967 72.7718 11.0412 73.3343 11.0412C73.4622 11.0412 73.6049 11.0476 73.7626 11.0604C73.9245 11.0689 74.0588 11.0838 74.1653 11.1051V13.2337C74.0673 13.1996 73.9118 13.1697 73.6987 13.1442C73.4899 13.1143 73.2875 13.0994 73.0914 13.0994C72.6696 13.0994 72.2903 13.1911 71.9537 13.3743C71.6213 13.5533 71.3592 13.8026 71.1674 14.1222C70.9757 14.4418 70.8798 14.8104 70.8798 15.228V21H68.5659ZM79.6449 21.1918C78.6605 21.1918 77.8104 20.9872 77.0945 20.5781C76.3828 20.1648 75.8352 19.581 75.4517 18.8267C75.0682 18.0682 74.8764 17.1754 74.8764 16.1484C74.8764 15.1385 75.0682 14.2521 75.4517 13.4893C75.8395 12.7223 76.3807 12.1257 77.0753 11.6996C77.7699 11.2692 78.5859 11.054 79.5234 11.054C80.1286 11.054 80.6996 11.152 81.2365 11.348C81.7777 11.5398 82.255 11.8381 82.6683 12.2429C83.0859 12.6477 83.4141 13.1634 83.6527 13.7898C83.8913 14.4119 84.0107 15.1534 84.0107 16.0142V16.7237H75.9631V15.1641H81.7926C81.7884 14.7209 81.6925 14.3267 81.505 13.9815C81.3175 13.6321 81.0554 13.3572 80.7188 13.157C80.3864 12.9567 79.9986 12.8565 79.5554 12.8565C79.0824 12.8565 78.6669 12.9716 78.3089 13.2017C77.951 13.4276 77.6719 13.7259 77.4716 14.0966C77.2756 14.4631 77.1754 14.8658 77.1712 15.3047V16.6662C77.1712 17.2372 77.2756 17.7273 77.4844 18.1364C77.6932 18.5412 77.9851 18.8523 78.3601 19.0696C78.7351 19.2827 79.174 19.3892 79.6768 19.3892C80.0135 19.3892 80.3182 19.3423 80.5909 19.2486C80.8636 19.1506 81.1001 19.0078 81.3004 18.8203C81.5007 18.6328 81.652 18.4006 81.7543 18.1236L83.9148 18.3665C83.7784 18.9375 83.5185 19.4361 83.1349 19.8622C82.7557 20.2841 82.2699 20.6122 81.6776 20.8466C81.0852 21.0767 80.4077 21.1918 79.6449 21.1918ZM93.7282 13.777L91.6188 14.0071C91.5591 13.794 91.4547 13.5938 91.3056 13.4062C91.1607 13.2188 90.9647 13.0675 90.7175 12.9524C90.4703 12.8374 90.1678 12.7798 89.8098 12.7798C89.3283 12.7798 88.9235 12.8842 88.5953 13.093C88.2715 13.3018 88.1117 13.5724 88.1159 13.9048C88.1117 14.1903 88.2161 14.4226 88.4292 14.6016C88.6465 14.7805 89.0044 14.9276 89.503 15.0426L91.1777 15.4006C92.1067 15.6009 92.7971 15.9183 93.2488 16.353C93.7047 16.7876 93.9348 17.3565 93.9391 18.0597C93.9348 18.6776 93.7537 19.223 93.3958 19.696C93.0421 20.1648 92.5499 20.5312 91.9192 20.7955C91.2885 21.0597 90.5641 21.1918 89.7459 21.1918C88.5442 21.1918 87.5769 20.9403 86.8439 20.4375C86.111 19.9304 85.6742 19.2251 85.5336 18.3217L87.79 18.1044C87.8922 18.5476 88.1096 18.8821 88.4419 19.108C88.7743 19.3338 89.2069 19.4467 89.7395 19.4467C90.2892 19.4467 90.7303 19.3338 91.0627 19.108C91.3993 18.8821 91.5676 18.603 91.5676 18.2706C91.5676 17.9893 91.459 17.7571 91.2417 17.5739C91.0286 17.3906 90.6962 17.25 90.2445 17.152L88.5698 16.8004C87.628 16.6044 86.9313 16.2741 86.4796 15.8097C86.0279 15.3409 85.8042 14.7486 85.8084 14.0327C85.8042 13.4276 85.9682 12.9034 86.3006 12.4602C86.6373 12.0128 87.1039 11.6676 87.7005 11.4247C88.3013 11.1776 88.9938 11.054 89.7779 11.054C90.9284 11.054 91.834 11.299 92.4945 11.7891C93.1593 12.2791 93.5705 12.9418 93.7282 13.777ZM103.607 13.777L101.498 14.0071C101.438 13.794 101.334 13.5938 101.184 13.4062C101.04 13.2188 100.844 13.0675 100.596 12.9524C100.349 12.8374 100.047 12.7798 99.6887 12.7798C99.2072 12.7798 98.8024 12.8842 98.4743 13.093C98.1504 13.3018 97.9906 13.5724 97.9949 13.9048C97.9906 14.1903 98.095 14.4226 98.3081 14.6016C98.5254 14.7805 98.8833 14.9276 99.3819 15.0426L101.057 15.4006C101.986 15.6009 102.676 15.9183 103.128 16.353C103.584 16.7876 103.814 17.3565 103.818 18.0597C103.814 18.6776 103.633 19.223 103.275 19.696C102.921 20.1648 102.429 20.5312 101.798 20.7955C101.167 21.0597 100.443 21.1918 99.6248 21.1918C98.4231 21.1918 97.4558 20.9403 96.7228 20.4375C95.9899 19.9304 95.5531 19.2251 95.4125 18.3217L97.6689 18.1044C97.7711 18.5476 97.9885 18.8821 98.3208 19.108C98.6532 19.3338 99.0858 19.4467 99.6184 19.4467C100.168 19.4467 100.609 19.3338 100.942 19.108C101.278 18.8821 101.447 18.603 101.447 18.2706C101.447 17.9893 101.338 17.7571 101.121 17.5739C100.907 17.3906 100.575 17.25 100.123 17.152L98.4487 16.8004C97.5069 16.6044 96.8102 16.2741 96.3585 15.8097C95.9068 15.3409 95.6831 14.7486 95.6873 14.0327C95.6831 13.4276 95.8471 12.9034 96.1795 12.4602C96.5162 12.0128 96.9828 11.6676 97.5794 11.4247C98.1802 11.1776 98.8727 11.054 99.6568 11.054C100.807 11.054 101.713 11.299 102.373 11.7891C103.038 12.2791 103.449 12.9418 103.607 13.777ZM126.002 21.179C125.149 21.179 124.387 21.0192 123.713 20.6996C123.04 20.3757 122.505 19.9325 122.109 19.37C121.717 18.8075 121.508 18.1641 121.482 17.4396H123.784C123.826 17.9766 124.058 18.4155 124.48 18.7564C124.902 19.093 125.409 19.2614 126.002 19.2614C126.466 19.2614 126.879 19.1548 127.242 18.9418C127.604 18.7287 127.889 18.4325 128.098 18.0533C128.307 17.674 128.409 17.2415 128.405 16.7557C128.409 16.2614 128.305 15.8224 128.092 15.4389C127.879 15.0554 127.587 14.755 127.216 14.5376C126.845 14.3161 126.419 14.2053 125.938 14.2053C125.546 14.201 125.16 14.2734 124.781 14.4226C124.401 14.5717 124.101 14.7678 123.879 15.0107L121.738 14.6591L122.422 7.90909H130.016V9.89062H124.384L124.007 13.3615H124.084C124.327 13.076 124.67 12.8395 125.113 12.652C125.556 12.4602 126.042 12.3643 126.57 12.3643C127.363 12.3643 128.07 12.5518 128.693 12.9268C129.315 13.2976 129.805 13.8089 130.163 14.4609C130.521 15.1129 130.7 15.8587 130.7 16.6982C130.7 17.5632 130.499 18.3345 130.099 19.0121C129.703 19.6854 129.151 20.2159 128.443 20.6037C127.74 20.9872 126.926 21.179 126.002 21.179ZM138.166 7.90909V21H135.794V10.2166H135.718L132.656 12.1726V9.99929L135.909 7.90909H138.166ZM148.489 18.5455V17.8551C148.489 17.348 148.595 16.8814 148.808 16.4553C149.026 16.0291 149.341 15.6861 149.754 15.4261C150.168 15.1662 150.669 15.0362 151.257 15.0362C151.862 15.0362 152.369 15.1662 152.778 15.4261C153.187 15.6818 153.496 16.0227 153.705 16.4489C153.918 16.875 154.024 17.3437 154.024 17.8551V18.5455C154.024 19.0526 153.918 19.5192 153.705 19.9453C153.492 20.3714 153.178 20.7145 152.765 20.9744C152.356 21.2344 151.853 21.3643 151.257 21.3643C150.66 21.3643 150.155 21.2344 149.742 20.9744C149.328 20.7145 149.015 20.3714 148.802 19.9453C148.593 19.5192 148.489 19.0526 148.489 18.5455ZM150.157 17.8551V18.5455C150.157 18.8821 150.238 19.1911 150.4 19.4723C150.562 19.7536 150.847 19.8942 151.257 19.8942C151.67 19.8942 151.953 19.7557 152.107 19.4787C152.264 19.1974 152.343 18.8864 152.343 18.5455V17.8551C152.343 17.5142 152.269 17.2031 152.119 16.9219C151.97 16.6364 151.683 16.4936 151.257 16.4936C150.856 16.4936 150.573 16.6364 150.406 16.9219C150.24 17.2031 150.157 17.5142 150.157 17.8551ZM141.835 11.054V10.3636C141.835 9.85227 141.943 9.38352 142.161 8.95739C142.378 8.53125 142.693 8.19034 143.107 7.93466C143.52 7.67472 144.021 7.54474 144.609 7.54474C145.21 7.54474 145.715 7.67472 146.124 7.93466C146.537 8.19034 146.848 8.53125 147.057 8.95739C147.266 9.38352 147.37 9.85227 147.37 10.3636V11.054C147.37 11.5653 147.264 12.0341 147.051 12.4602C146.842 12.8821 146.531 13.2209 146.117 13.4766C145.704 13.7322 145.201 13.8601 144.609 13.8601C144.008 13.8601 143.501 13.7322 143.088 13.4766C142.678 13.2209 142.367 12.88 142.154 12.4538C141.941 12.0277 141.835 11.5611 141.835 11.054ZM143.516 10.3636V11.054C143.516 11.3949 143.595 11.706 143.752 11.9872C143.914 12.2642 144.2 12.4027 144.609 12.4027C145.018 12.4027 145.299 12.2642 145.453 11.9872C145.61 11.706 145.689 11.3949 145.689 11.054V10.3636C145.689 10.0227 145.615 9.71165 145.465 9.4304C145.316 9.14489 145.031 9.00213 144.609 9.00213C144.204 9.00213 143.921 9.14489 143.759 9.4304C143.597 9.71591 143.516 10.027 143.516 10.3636ZM142.563 21L151.563 7.90909H153.161L144.161 21H142.563Z" fill="#1C1C1C"/>
<path d="M115.535 7.29545L111.316 22.9688H109.29L113.508 7.29545H115.535Z" fill="black" fill-opacity="0.2"/>
</svg>
